REM DIRINDEX 1\2\3,1\2\4,1\2\5,1\2\6
REM DIRNAME folder01,folder02,folder03,folder04,folder05,folder06
TITLE ""
FILE "012 012.mp3" MP3
  TRACK 01 AUDIO
    TITLE "0:"
    INDEX 01 00:00:00
  TRACK 02 AUDIO
    TITLE "3:cjc157_0400"
    INDEX 01 00:00:09
  TRACK 03 AUDIO
    TITLE "0:"
    INDEX 01 00:01:54
  TRACK 04 AUDIO
    TITLE "4:cjc157_0401"
    INDEX 01 00:02:24
  TRACK 05 AUDIO
    TITLE "0:"
    INDEX 01 00:03:39
  TRACK 06 AUDIO
    TITLE "5:cjc157_0402"
    INDEX 01 00:04:07
  TRACK 07 AUDIO
    TITLE "0:"
    INDEX 01 00:06:14
  TRACK 08 AUDIO
    TITLE "5:cjc157_0403"
    INDEX 01 00:06:67
  TRACK 09 AUDIO
    TITLE "0:"
    INDEX 01 00:10:06
  TRACK 10 AUDIO
    TITLE "5:cjc157_0404"
    INDEX 01 00:10:51
  TRACK 11 AUDIO
    TITLE "0:"
    INDEX 01 00:12:36
  TRACK 12 AUDIO
    TITLE "3:cjc157_0405"
    INDEX 01 00:13:06
  TRACK 13 AUDIO
    TITLE "0:"
    INDEX 01 00:14:15
  TRACK 14 AUDIO
    TITLE "4:cjc157_0406"
    INDEX 01 00:14:60
  TRACK 15 AUDIO
    TITLE "0:"
    INDEX 01 00:15:64
  TRACK 16 AUDIO
    TITLE "5:cjc157_0407"
    INDEX 01 00:16:36
  TRACK 17 AUDIO
    TITLE "0:"
    INDEX 01 00:19:26
  TRACK 18 AUDIO
    TITLE "5:cjc157_0408"
    INDEX 01 00:20:00
  TRACK 19 AUDIO
    TITLE "0:"
    INDEX 01 00:23:55
  TRACK 20 AUDIO
    TITLE "3:cjc157_0409"
    INDEX 01 00:24:25
  TRACK 21 AUDIO
    TITLE "0:"
    INDEX 01 00:25:45
  TRACK 22 AUDIO
    TITLE "4:cjc157_0410"
    INDEX 01 00:26:15
  TRACK 23 AUDIO
    TITLE "0:"
    INDEX 01 00:27:30
  TRACK 24 AUDIO
    TITLE "5:cjc157_0411"
    INDEX 01 00:27:73
  TRACK 25 AUDIO
    TITLE "0:"
    INDEX 01 00:32:00
  TRACK 26 AUDIO
    TITLE "5:cjc157_0412"
    INDEX 01 00:32:50
  TRACK 27 AUDIO
    TITLE "0:"
    INDEX 01 00:35:02
  TRACK 28 AUDIO
    TITLE "3:cjc157_0413"
    INDEX 01 00:35:49
  TRACK 29 AUDIO
    TITLE "0:"
    INDEX 01 00:36:70
  TRACK 30 AUDIO
    TITLE "4:cjc157_0414"
    INDEX 01 00:37:44
  TRACK 31 AUDIO
    TITLE "0:"
    INDEX 01 00:38:53
  TRACK 32 AUDIO
    TITLE "5:cjc157_0415"
    INDEX 01 00:39:21
  TRACK 33 AUDIO
    TITLE "0:"
    INDEX 01 00:41:38
  TRACK 34 AUDIO
    TITLE "5:cjc157_0416"
    INDEX 01 00:42:04
  TRACK 35 AUDIO
    TITLE "0:"
    INDEX 01 00:43:39
  TRACK 36 AUDIO
    TITLE "5:cjc157_0417"
    INDEX 01 00:44:07
  TRACK 37 AUDIO
    TITLE "0:"
    INDEX 01 00:45:57
  TRACK 38 AUDIO
    TITLE "5:cjc157_0418"
    INDEX 01 00:46:27
  TRACK 39 AUDIO
    TITLE "0:"
    INDEX 01 00:50:39
  TRACK 40 AUDIO
    TITLE "3:cjc157_0419"
    INDEX 01 00:51:11
  TRACK 41 AUDIO
    TITLE "0:"
    INDEX 01 00:52:26
  TRACK 42 AUDIO
    TITLE "4:cjc157_0420"
    INDEX 01 00:52:71
  TRACK 43 AUDIO
    TITLE "0:"
    INDEX 01 00:54:01
  TRACK 44 AUDIO
    TITLE "5:cjc157_0421"
    INDEX 01 00:54:44
  TRACK 45 AUDIO
    TITLE "0:"
    INDEX 01 00:57:25
  TRACK 46 AUDIO
    TITLE "5:cjc157_0422"
    INDEX 01 00:57:70
  TRACK 47 AUDIO
    TITLE "0:"
    INDEX 01 01:00:60
  TRACK 48 AUDIO
    TITLE "3:cjc157_0423"
    INDEX 01 01:01:33
  TRACK 49 AUDIO
    TITLE "0:"
    INDEX 01 01:02:63
  TRACK 50 AUDIO
    TITLE "4:cjc157_0424"
    INDEX 01 01:03:35
  TRACK 51 AUDIO
    TITLE "0:"
    INDEX 01 01:04:43
  TRACK 52 AUDIO
    TITLE "5:cjc157_0425"
    INDEX 01 01:05:09
  TRACK 53 AUDIO
    TITLE "0:"
    INDEX 01 01:07:06
  TRACK 54 AUDIO
    TITLE "5:cjc157_0426"
    INDEX 01 01:07:49
  TRACK 55 AUDIO
    TITLE "0:"
    INDEX 01 01:09:50
  TRACK 56 AUDIO
    TITLE "3:cjc157_0427"
    INDEX 01 01:10:20
  TRACK 57 AUDIO
    TITLE "0:"
    INDEX 01 01:11:62
  TRACK 58 AUDIO
    TITLE "4:cjc157_0428"
    INDEX 01 01:12:32
  TRACK 59 AUDIO
    TITLE "0:"
    INDEX 01 01:13:57
  TRACK 60 AUDIO
    TITLE "5:cjc157_0429"
    INDEX 01 01:14:25
  TRACK 61 AUDIO
    TITLE "0:"
    INDEX 01 01:16:40
  TRACK 62 AUDIO
    TITLE "5:cjc157_0430"
    INDEX 01 01:17:12
  TRACK 63 AUDIO
    TITLE "0:"
    INDEX 01 01:18:64
  TRACK 64 AUDIO
    TITLE "3:cjc157_0431"
    INDEX 01 01:19:32
  TRACK 65 AUDIO
    TITLE "0:"
    INDEX 01 01:21:00
  TRACK 66 AUDIO
    TITLE "4:cjc157_0432"
    INDEX 01 01:21:43
  TRACK 67 AUDIO
    TITLE "0:"
    INDEX 01 01:22:54
  TRACK 68 AUDIO
    TITLE "5:cjc157_0433"
    INDEX 01 01:23:26
  TRACK 69 AUDIO
    TITLE "0:"
    INDEX 01 01:25:41
  TRACK 70 AUDIO
    TITLE "3:cjc157_0434"
    INDEX 01 01:26:11
  TRACK 71 AUDIO
    TITLE "0:"
    INDEX 01 01:27:24
  TRACK 72 AUDIO
    TITLE "4:cjc157_0435"
    INDEX 01 01:27:71
  TRACK 73 AUDIO
    TITLE "0:"
    INDEX 01 01:29:11
  TRACK 74 AUDIO
    TITLE "5:cjc157_0436"
    INDEX 01 01:29:58
  TRACK 75 AUDIO
    TITLE "0:"
    INDEX 01 01:32:57
  TRACK 76 AUDIO
    TITLE "5:cjc157_0437"
    INDEX 01 01:33:29
  TRACK 77 AUDIO
    TITLE "0:"
    INDEX 01 01:36:25
  TRACK 78 AUDIO
    TITLE "3:cjc157_0438"
    INDEX 01 01:36:70
  TRACK 79 AUDIO
    TITLE "0:"
    INDEX 01 01:38:59
  TRACK 80 AUDIO
    TITLE "4:cjc157_0439"
    INDEX 01 01:39:29
  TRACK 81 AUDIO
    TITLE "0:"
    INDEX 01 01:40:42
  TRACK 82 AUDIO
    TITLE "5:cjc157_0440"
    INDEX 01 01:41:12
  TRACK 83 AUDIO
    TITLE "0:"
    INDEX 01 01:43:35
  TRACK 84 AUDIO
    TITLE "5:cjc157_0441"
    INDEX 01 01:44:07
  TRACK 85 AUDIO
    TITLE "0:"
    INDEX 01 01:46:70
